<svg xmlns="http://www.w3.org/2000/svg" xmlns:xlink="http://www.w3.org/1999/xlink" id="Layer_1" x="0px" y="0px" width="100%" viewBox="0 0 500 500" xml:space="preserve"><path fill="#FFFFFF" opacity="1.000000" stroke="none" d="M285.000000,501.000000  C191.333359,501.000000 98.166679,500.975891 5.000190,501.095703  C1.576153,501.100128 0.903036,500.423828 0.905301,497.000000  C1.013778,333.000092 1.013756,169.000122 0.905337,5.000248  C0.903074,1.576952 1.575788,0.903021 4.999875,0.905286  C168.999756,1.013775 332.999725,1.013761 496.999634,0.905353  C500.422668,0.903091 501.096985,1.575426 501.094727,4.999755  C500.986206,168.999634 500.986237,332.999603 501.094604,496.999512  C501.096893,500.422272 500.425690,501.102692 497.000244,501.096466  C426.500336,500.968201 356.000153,501.000000 285.000000,501.000000 z"></path><path fill="#327AE6" opacity="1.000000" stroke="none" d="M72.313156,252.377197  C72.115578,251.564926 72.073982,251.110260 72.094482,250.317352  C73.197197,243.224335 72.417374,236.411987 72.846039,229.615524  C74.113319,209.522736 80.151970,190.801376 88.273682,172.637314  C96.995010,153.132202 109.124611,135.759460 124.184448,120.796539  C151.211426,93.943489 183.539078,76.670815 221.378647,70.409721  C227.607529,69.379074 233.951645,69.437035 240.622818,69.313156  C247.350067,69.113663 253.719742,69.070168 260.555115,69.091629  C273.668518,69.444595 286.178558,70.652679 298.396088,74.218102  C325.656647,82.173500 349.952209,95.297623 371.002045,114.546005  C393.572784,135.185120 409.946991,159.837204 420.185272,188.554611  C425.848816,204.440323 429.728027,220.741592 429.496124,237.785980  C429.444092,241.611328 429.426361,245.439163 429.686829,249.622849  C429.884430,250.435074 429.926025,250.889755 429.905518,251.682632  C428.802826,258.775665 429.582672,265.588013 429.153992,272.384460  C427.886658,292.477264 421.848083,311.198669 413.726318,329.362701  C405.004944,348.867767 392.875488,366.240601 377.815582,381.203522  C350.788513,408.056549 318.460876,425.329193 280.621307,431.590271  C274.392426,432.620941 268.048340,432.562988 261.377167,432.686829  C254.649918,432.886322 248.280228,432.929810 241.444855,432.908356  C228.331497,432.555420 215.821457,431.347321 203.603943,427.781891  C176.343445,419.826447 152.047882,406.702423 130.998062,387.454041  C108.427383,366.814911 92.053123,342.162933 81.814857,313.445557  C76.151299,297.559845 72.272171,281.258606 72.503883,264.214264  C72.555893,260.388855 72.573685,256.560974 72.313156,252.377197 z"></path><path fill="#000000" opacity="1.000000" stroke="none" d="M72.084221,252.484161  C73.514572,252.771759 72.988235,254.083862 72.973129,255.146088  C72.549355,284.945648 80.669395,312.600250 94.400337,338.714966  C101.422409,352.070129 110.452911,364.056152 120.636078,375.276581  C137.178925,393.504517 156.748138,407.364105 179.039658,417.506561  C194.233109,424.419434 210.135635,428.843384 226.704941,431.154419  C231.328232,431.799255 235.914444,431.665283 240.737610,432.496155  C221.176361,432.895599 201.373581,432.979156 181.570755,432.993134  C146.617966,433.017761 111.664772,432.926208 76.712852,433.101501  C72.734726,433.121490 71.904366,432.022369 71.912773,428.211823  C72.041725,369.790985 72.007515,311.369812 72.084221,252.484161 z"></path><path fill="#000000" opacity="1.000000" stroke="none" d="M261.484161,432.915771  C265.266541,430.590271 269.991089,431.900604 274.463135,431.286987  C294.716644,428.507843 313.739685,422.431458 331.880310,413.086090  C346.392212,405.610107 359.421295,396.270111 371.437805,385.213898  C388.908112,369.139679 402.436676,350.310760 412.486603,328.944489  C419.646545,313.722382 424.296082,297.706970 427.119598,281.081177  C428.734222,271.573547 428.971375,262.069275 429.494629,252.266602  C429.895599,264.333771 429.988129,276.646637 429.992859,288.959595  C430.010712,335.396881 429.945679,381.834351 430.097626,428.271149  C430.110535,432.212341 429.073914,433.099731 425.227966,433.090118  C370.801788,432.953979 316.375214,432.992493 261.484161,432.915771 z"></path><path fill="#000000" opacity="1.000000" stroke="none" d="M429.915771,249.515869  C428.485443,249.228241 429.011810,247.916138 429.026917,246.853912  C429.450592,217.054398 421.330688,189.399796 407.599731,163.285080  C400.577606,149.929916 391.547150,137.943863 381.363983,126.723442  C364.821075,108.495567 345.251953,94.635910 322.960388,84.493477  C307.766937,77.580612 291.864441,73.156708 275.295135,70.845619  C270.671814,70.200752 266.085571,70.334991 261.262390,69.503883  C280.657166,69.104408 300.293518,69.020660 319.929901,69.006927  C355.049133,68.982361 390.168762,69.073433 425.287109,68.898506  C429.265167,68.878693 430.095612,69.977554 430.087189,73.788155  C429.958252,132.209000 429.992493,190.630203 429.915771,249.515869 z"></path><path fill="#000000" opacity="1.000000" stroke="none" d="M240.515839,69.084221  C236.733490,71.410133 232.008911,70.099365 227.536850,70.713020  C207.283325,73.492203 188.260223,79.568481 170.119614,88.913925  C155.607742,96.389961 142.578598,105.729919 130.562088,116.786224  C113.091843,132.860504 99.563126,151.689331 89.513290,173.055695  C82.353447,188.277817 77.703728,204.293198 74.880356,220.919067  C73.265808,230.426620 73.028938,239.930847 72.505348,249.733398  C72.104385,237.666229 72.011902,225.353333 72.007172,213.040405  C71.989319,166.603119 72.054321,120.165665 71.902359,73.728874  C71.889458,69.787743 72.925987,68.900291 76.772003,68.909904  C131.198166,69.046051 185.624786,69.007515 240.515839,69.084221 z"></path><path fill="#D9E6FA" opacity="1.000000" stroke="none" d="M255.219864,392.561462  C253.273666,392.867462 251.593307,392.896393 249.495773,392.871216  C241.992828,378.365936 233.352707,364.790527 224.922546,351.136597  C217.772110,339.555359 211.547577,327.483429 204.631393,315.814148  C198.539322,305.535370 192.955780,294.990356 187.173355,284.562744  C182.924026,276.899841 179.784378,268.537445 175.661316,260.836609  C170.232880,250.697693 168.849976,239.358261 164.280884,229.065186  C163.945312,228.309189 163.893570,227.450516 163.754471,226.249634  C163.486862,221.911621 162.909332,217.998047 161.811523,213.805405  C161.506851,213.244003 161.403702,213.007950 161.207031,212.394409  C161.048386,211.500519 161.040329,210.983246 161.145966,210.082916  C161.876526,206.697739 161.920593,203.690109 161.170395,200.307190  C160.747833,198.425339 160.709641,196.902466 160.948715,195.006393  C161.614426,192.602905 161.972626,190.541336 161.468536,188.077271  C161.321899,187.518661 161.269836,187.293716 161.165771,186.728119  C161.104813,186.159454 161.095840,185.931458 161.120850,185.367447  C161.212143,184.817444 161.269485,184.603455 161.463959,184.092606  C162.679993,182.571014 162.781937,181.202179 162.116699,179.404785  C161.810333,177.885056 161.858032,176.706009 162.338638,175.191864  C164.560776,168.994202 166.270340,163.000397 169.569580,157.637665  C170.415863,156.262070 170.679535,154.514557 172.771790,153.847473  C175.291565,158.250961 173.433243,162.111801 171.264526,165.616592  C168.521729,170.049103 167.471924,174.756943 167.288742,179.843933  C166.852234,191.965698 166.471802,204.080841 167.290359,216.204468  C167.696838,222.224884 168.287109,228.146011 171.610229,233.441589  C173.410767,236.310852 174.322495,239.474884 174.360840,242.918671  C174.398636,246.313004 175.695755,249.295456 177.250092,252.340317  C181.324829,260.322479 185.543030,268.246033 188.857162,276.605103  C190.879333,281.705536 194.192383,286.140686 196.624084,291.077393  C201.155899,300.277771 206.145889,309.316345 211.436584,318.094940  C217.318741,327.854950 222.529465,337.996002 228.887558,347.509705  C236.159103,358.390259 242.355789,369.985626 248.827042,381.382233  C252.052475,387.062531 252.700989,387.114838 256.240448,381.755402  C256.701935,381.056549 257.188416,380.387390 258.212738,379.707703  C258.827087,379.532074 259.086578,379.519684 259.708984,379.647858  C261.556213,382.724121 259.317871,384.788116 258.246765,387.054779  C257.409180,388.827240 256.537750,390.611206 255.219864,392.561462 z"></path><path fill="#9CBFF3" opacity="1.000000" stroke="none" d="M287.692047,110.471535  C288.983826,110.133972 290.047943,110.093506 291.512726,110.066177  C296.393585,114.968185 302.709473,117.171707 307.971924,120.956627  C315.834869,126.611839 321.795807,133.945175 327.752930,141.282059  C331.388855,145.760132 334.747925,150.506927 337.447632,155.757980  C339.911469,160.550156 341.999786,165.355362 343.155579,170.582901  C343.669525,172.907455 344.368225,175.094650 346.657776,176.837158  C346.908325,190.740982 346.918365,204.372696 346.899597,218.467865  C342.691376,222.409180 342.585480,227.572800 341.313965,232.630676  C341.206726,233.476334 341.113922,233.956421 340.910919,234.793335  C336.895844,244.793625 333.915894,254.800293 329.451599,264.611725  C329.305573,265.688080 329.134003,266.386780 328.793091,267.405914  C328.276794,268.571503 327.539307,269.218109 327.276855,270.511353  C326.938690,272.084503 326.529266,273.236786 325.268799,274.337708  C324.218536,274.844147 323.469177,274.885986 322.367859,274.523438  C321.344849,268.950836 324.766296,264.724792 326.209503,259.935089  C326.966583,257.422546 328.966980,255.365509 329.081909,252.223511  C329.016449,251.148163 329.064850,250.439011 329.351318,249.414246  C330.905121,247.645782 332.020111,246.046555 332.080902,243.571411  C332.437531,241.231033 332.976990,239.303833 334.268188,237.299316  C335.029510,236.173386 335.748596,235.388382 335.801483,233.947723  C335.885132,232.983063 336.005890,232.346924 336.311218,231.413406  C336.833374,230.319336 337.521820,229.683411 337.696655,228.407745  C337.848846,227.330109 337.977173,226.605331 338.206604,225.498047  C342.665833,207.603958 342.981476,190.101288 337.993835,172.272247  C337.417816,171.256943 337.214722,170.527832 337.119202,169.410950  C337.136993,168.185257 337.253265,167.299347 336.593262,166.212952  C336.245453,165.527359 336.091858,165.114166 335.873962,164.369232  C335.014771,160.917755 333.032928,158.477386 330.972351,155.700012  C330.639038,155.250549 330.521667,155.060181 330.275146,154.562576  C329.799591,153.004837 329.469421,151.747620 328.490051,150.410080  C327.151611,148.234528 325.721680,146.547974 323.981781,144.677185  C323.629456,144.241837 323.502502,144.057266 323.218445,143.577911  C322.551422,141.777893 321.549377,140.672974 319.988251,139.612518  C318.693024,138.331055 317.712891,137.198807 316.535828,135.816422  C315.395660,134.414139 314.242432,133.498520 312.806091,132.415894  C311.231140,130.216354 309.244812,128.849380 307.470581,126.832489  C304.751282,124.424698 301.880920,122.814804 298.746063,120.983101  C298.220734,120.726616 298.013214,120.612312 297.510986,120.291290  C295.355072,118.305092 292.781158,117.889374 290.638794,116.647530  C288.376831,115.336388 286.377289,113.886719 287.692047,110.471535 z"></path><path fill="#A5C4F3" opacity="1.000000" stroke="none" d="M164.723419,225.783905  C168.907715,236.790878 170.793320,248.197296 176.057114,258.629364  C179.242249,264.941803 182.207199,271.451080 185.233170,277.879120  C188.739258,285.326996 193.559769,292.168274 196.906052,299.675659  C199.888519,306.366760 204.553833,311.991302 207.512375,318.679504  C210.171677,324.691254 213.495438,330.477356 217.115524,335.974854  C220.192978,340.648346 222.813644,345.588654 225.870667,350.279755  C233.617386,362.167297 240.348358,374.713806 247.634018,386.908020  C248.642487,388.595856 249.105392,390.182373 249.060394,392.428802  C248.632538,392.863831 248.186478,392.910553 247.403320,392.931030  C245.939682,392.137848 245.785446,390.666656 244.583618,389.545471  C243.756424,388.604645 243.336502,387.805969 242.909241,386.623169  C240.298111,381.209503 238.318527,375.809784 233.859100,371.498840  C232.481171,369.256256 231.882538,367.010132 230.522064,364.748322  C229.679764,363.003571 228.667648,361.791016 227.454010,360.302246  C225.186722,354.404144 220.485611,350.445923 217.744080,344.864716  C217.296234,343.297058 216.511810,342.259216 215.776215,340.853943  C215.179337,339.895782 214.801941,339.168732 214.155655,338.251068  C213.865555,337.836334 213.752914,337.667908 213.486404,337.237518  C213.046204,336.439606 212.791092,335.887787 212.357422,335.082520  C211.836487,334.075897 211.527069,333.310516 211.101166,332.254608  C210.529953,330.564331 209.917099,329.249115 208.724808,327.890320  C208.238220,327.320343 207.973633,326.982452 207.539505,326.366028  C206.710632,324.979584 206.227615,323.777618 205.434753,322.374390  C204.447754,320.380585 203.672394,318.639404 202.587494,316.701263  C201.794525,315.108612 200.952866,313.936676 199.681000,312.685852  C199.049805,311.956970 198.709457,311.412750 198.276276,310.546143  C197.900620,309.650848 197.690826,309.038147 197.278091,308.156860  C196.211655,305.890839 195.289780,303.916748 193.818848,301.877106  C193.075073,300.716675 192.575806,299.783630 191.786407,298.663452  C191.523483,298.216370 191.430862,298.031189 191.229828,297.557404  C190.934753,296.690308 190.771332,296.103943 190.405090,295.268250  C189.926178,294.259399 189.619629,293.506256 189.183441,292.475555  C188.765579,291.436035 188.430008,290.698486 187.711884,289.822021  C187.240311,289.266144 186.980530,288.938660 186.545197,288.345825  C185.798370,287.189301 185.234833,286.291687 184.421021,285.171661  C183.371994,283.383423 182.912704,281.701691 182.212463,279.768646  C181.678970,278.036163 181.168961,276.647186 180.045624,275.195679  C179.727158,274.761841 179.602737,274.585327 179.301788,274.136230  C178.679520,273.116241 178.226425,272.373505 177.561340,271.371765  C177.291840,270.888367 177.195740,270.688324 176.978912,270.177979  C175.705627,266.553864 175.122391,263.006378 172.647903,259.889008  C172.139084,259.282837 171.862869,258.922821 171.410278,258.264587  C169.999725,255.740707 169.449829,253.251083 168.431259,250.573181  C168.191010,249.817947 168.087112,249.379745 167.959564,248.608002  C167.809525,247.424805 167.765442,246.559326 167.349564,245.437958  C166.964630,244.542603 166.712875,243.941132 166.309357,243.043015  C165.432053,240.391800 164.317291,238.187469 163.423492,235.538116  C163.184769,234.792191 163.084747,234.357300 162.957321,233.589569  C162.810699,232.395126 162.752991,231.522018 162.398834,230.362549  C162.072845,229.162491 161.994965,228.269730 162.187469,227.027740  C162.373444,226.487595 162.479416,226.282822 162.846924,225.851181  C163.553009,225.474091 164.003296,225.445984 164.723419,225.783905 z"></path><path fill="#4F8CE9" opacity="1.000000" stroke="none" d="M166.741608,242.774506  C167.259186,243.494080 167.554840,243.962311 167.863647,244.722412  C167.991501,245.878204 167.967636,246.774002 168.647324,247.821655  C168.858963,248.517670 168.884033,248.942825 168.924026,249.687057  C169.359543,252.664047 170.120987,255.205139 171.740936,257.777222  C172.279877,258.144562 172.536285,258.340485 172.843933,258.832153  C175.136871,262.242126 175.600952,266.170929 177.662079,269.790222  C177.882553,270.071320 177.930862,270.540253 177.961609,270.773926  C178.688553,271.758728 178.836258,272.842255 179.754242,273.807007  C179.956161,274.032715 179.991272,273.998840 179.978241,274.016998  C181.008026,275.428436 181.310944,277.231079 182.661972,278.822388  C183.527679,280.830688 184.200378,282.577240 184.924408,284.674591  C185.700287,285.753326 185.831268,286.853271 186.783783,287.787170  C187.309753,288.121918 187.563690,288.318146 187.865189,288.810303  C188.704880,289.751129 188.829712,290.836609 189.676971,291.839844  C190.177597,292.853302 190.506805,293.619537 190.855865,294.700317  C190.960953,295.598694 191.153107,296.139313 191.685562,296.848511  C191.851364,297.087524 191.904587,297.559143 191.938629,297.794006  C192.703171,298.752716 192.830994,299.851593 193.760986,300.801880  C196.347763,302.448914 196.790573,305.071136 197.881226,307.661499  C197.975403,308.597168 198.157272,309.138733 198.690643,309.847473  C199.147476,310.569366 199.437027,311.053986 199.837952,311.797974  C200.850769,313.198181 201.343124,314.642212 202.761475,315.788605  C204.501373,317.478577 205.095596,319.444672 205.891663,321.664307  C205.980347,323.401886 206.704620,324.491333 207.752441,325.776550  C208.295532,326.129913 208.552979,326.323242 208.858673,326.815918  C210.019073,328.422668 210.307739,330.230591 211.650131,331.826904  C212.182449,332.853912 212.524963,333.616913 212.893951,334.694611  C212.981064,335.602295 213.179001,336.139282 213.763962,336.814514  C213.959869,337.030670 213.992599,337.000000 213.980301,337.015991  C214.684845,337.763672 214.836777,338.851227 215.778366,339.791260  C217.386520,340.665314 217.954987,341.827881 218.006531,343.654449  C217.833725,344.175995 217.655502,344.352142 217.185623,344.291229  C214.458603,343.794800 212.372849,341.905060 212.027771,340.228790  C210.577713,333.185028 203.631424,329.029968 202.775284,321.800995  C202.700745,321.171600 202.376175,320.486115 201.966248,319.994843  C193.911209,310.341492 189.628693,298.489349 183.537582,287.714417  C179.795685,281.095154 174.853424,274.760834 173.744034,266.766266  C173.386902,264.192596 170.595963,262.867584 169.816254,260.507233  C166.481293,250.411545 160.585403,241.139603 159.999420,230.158340  C159.946655,229.169373 160.125717,227.675827 159.168335,227.473969  C154.236725,226.434250 156.530762,222.589890 156.024902,219.402802  C160.465057,217.901489 161.007431,218.422470 162.618820,225.620987  C162.752899,227.082275 162.834366,228.144241 162.922455,229.606476  C162.998962,230.876266 162.966095,231.766312 163.616364,232.831757  C163.826233,233.530548 163.858322,233.952942 163.897049,234.693024  C163.849609,237.837326 165.632736,240.024200 166.741608,242.774506 z"></path><path fill="#5D96EB" opacity="1.000000" stroke="none" d="M346.946442,176.646149  C344.346741,177.304245 343.324066,176.189056 342.620270,173.603928  C335.412018,147.127579 318.892975,128.037415 295.294830,114.686478  C293.687500,113.777084 291.919952,113.103371 291.956116,110.442780  C298.291351,109.207092 301.338135,114.783279 305.799713,117.478264  C316.923981,124.197784 324.798248,134.469162 332.617493,144.476776  C336.662781,149.654251 340.327728,155.483734 342.480774,161.949249  C343.199310,164.106949 343.045929,166.228058 346.009949,167.751083  C348.423126,168.991074 346.686859,173.270584 346.946442,176.646149 z"></path><path fill="#528EE9" opacity="1.000000" stroke="none" d="M314.478821,294.031311  C315.131226,296.425507 314.887054,298.690887 313.619965,300.791290  C310.402252,306.125000 306.787201,311.284607 304.188843,316.910004  C300.802795,324.240845 295.248962,330.371246 292.807831,338.177490  C292.514038,339.116913 292.114136,340.143250 291.452454,340.829376  C281.761780,350.877930 278.451660,364.757263 270.558197,375.697266  C266.595917,381.188873 265.615173,387.697571 261.298553,392.893738  C259.195374,390.732513 260.162048,388.556091 260.927826,386.351532  C263.729279,378.286774 268.953796,371.548889 273.080841,364.214172  C275.914764,359.177734 278.861359,354.214630 281.079651,348.524963  C280.991974,347.486511 280.952545,346.795685 280.910858,345.764648  C280.925720,344.976654 280.974609,344.531616 281.129852,343.769043  C281.333099,343.032654 281.473358,342.621185 281.727722,341.908386  C281.968536,341.195190 282.130676,340.796906 282.484100,340.132111  C282.808777,339.707703 282.964111,339.558716 283.387329,339.230774  C284.215271,338.741333 284.806580,338.503326 285.709534,338.203369  C286.797028,337.917053 287.606079,337.794373 288.607605,337.291748  C289.930725,336.436401 290.509827,335.422089 290.823914,333.885071  C291.135681,332.517426 291.522064,331.513153 292.212158,330.285339  C292.859283,329.323700 293.504364,328.748566 293.883972,327.624756  C294.230438,326.715790 294.560059,326.162079 295.260742,325.461243  C297.297974,324.245667 297.785309,322.557312 298.006775,320.358032  C298.141968,319.808929 298.213379,319.594635 298.444305,319.083527  C300.113220,317.185516 301.417847,315.442322 302.494263,313.141785  C304.019257,311.377991 304.850128,309.667603 304.986572,307.302490  C305.277618,305.865295 305.628723,304.786865 305.954529,303.345551  C306.133789,302.799103 306.222748,302.586487 306.508240,302.089783  C307.056458,301.517548 307.435699,301.273010 308.148438,300.948700  C310.004791,300.305878 310.578644,298.850098 311.592407,297.401184  C311.820282,296.923523 311.913849,296.733337 312.156067,296.261414  C312.735779,295.240417 313.194824,294.523560 314.478821,294.031311 z"></path><path fill="#F2F6FD" opacity="1.000000" stroke="none" d="M220.726761,110.559082  C241.036301,110.120895 261.047852,110.080902 281.522888,110.107620  C282.935669,111.116783 283.468506,112.212166 282.953613,113.973038  C281.239319,115.390358 279.570648,115.520744 277.908203,115.528130  C260.470490,115.605568 243.032623,115.622162 225.594879,115.523338  C224.428986,115.516731 223.275482,115.366302 221.720520,114.768723  C220.073868,113.570915 220.010162,112.321083 220.726761,110.559082 z"></path><path fill="#528EE9" opacity="1.000000" stroke="none" d="M327.715576,268.134888  C327.931183,267.197052 327.986420,266.489777 328.068176,265.428711  C329.423553,263.766113 330.405792,262.194214 331.015381,260.472076  C333.944733,252.196594 337.291016,244.073212 340.046448,235.364044  C340.078217,234.576401 340.086548,234.151291 340.110687,233.407654  C341.258484,231.241119 341.663208,229.152893 342.099548,227.077759  C342.587219,224.758606 343.762695,223.565140 346.597290,224.704300  C346.601227,227.759308 348.602386,231.537643 343.758606,232.542191  C343.414429,232.613586 343.087036,233.668839 343.069122,234.275986  C342.772797,244.313370 336.441406,252.410278 333.892303,261.820892  C332.376770,267.415863 329.355255,273.815430 325.101074,278.783386  C323.128815,281.086578 321.828247,283.682617 321.189514,286.663177  C320.498627,289.887207 318.950745,292.557770 315.410095,294.010315  C315.067352,294.066956 315.022705,294.023651 314.999176,294.003326  C314.409729,293.400513 314.243256,292.694427 314.445923,291.556549  C317.531158,287.995544 319.273987,284.206909 319.958618,279.541229  C320.207550,278.510406 320.517883,277.888489 321.156525,277.061340  C322.328247,275.885651 323.587677,275.378693 324.734619,274.195312  C325.314087,272.888306 325.682312,271.826874 326.081299,270.425293  C326.541321,269.468445 327.081818,268.945099 327.715576,268.134888 z"></path><path fill="#528EE9" opacity="1.000000" stroke="none" d="M216.922699,344.454010  C217.080032,344.040741 217.266098,344.027374 217.732056,344.006897  C221.512192,348.966431 225.879364,353.375244 227.920135,359.672485  C228.827713,361.207428 229.348587,362.627106 230.749115,363.794739  C232.609634,365.769379 233.524307,367.874969 234.048279,370.550903  C238.264877,375.104736 239.675323,381.083710 243.728455,385.768707  C244.265442,386.785645 244.560425,387.550812 244.991394,388.596741  C245.815750,389.929779 246.074448,391.033142 245.278320,392.599976  C243.897430,392.909424 242.689499,393.149048 242.149368,391.649170  C238.446884,381.368286 231.412720,372.941925 226.444901,363.435272  C223.243469,357.308868 218.336304,351.923431 216.922699,344.454010 z"></path><path fill="#4D8BE9" opacity="1.000000" stroke="none" d="M156.365753,176.273254  C156.424744,173.253967 154.364426,169.432373 159.230240,168.513397  C159.453796,168.471161 159.771286,167.991074 159.752426,167.736588  C159.199417,160.272141 165.820297,155.804993 167.457153,149.230789  C168.571121,144.756729 172.025375,142.001877 175.800110,139.699234  C176.518585,140.523895 176.899597,141.190063 177.067001,142.368408  C177.075378,143.272354 176.985245,143.775894 176.662720,144.608047  C175.899033,145.770294 175.023239,146.213303 173.835480,146.805771  C170.720047,147.889481 170.222977,150.146454 170.240753,153.041351  C170.257996,154.111084 170.224548,154.830933 170.063049,155.922546  C169.698593,158.507217 168.468323,160.157700 166.498947,161.779419  C164.222733,162.691757 163.476105,164.135437 163.297577,166.134216  C163.064011,168.749527 162.386673,171.296356 161.499603,173.768799  C160.692139,176.019302 159.375504,177.501740 156.365753,176.273254 z"></path><path fill="#B5CFF5" opacity="1.000000" stroke="none" d="M281.528320,344.732483  C281.925415,345.681000 281.986908,346.451202 282.034424,347.610229  C280.088440,352.928314 277.160858,357.355286 274.568359,361.911743  C269.937378,370.050934 264.570007,377.758575 260.866669,386.438171  C260.029907,388.399292 259.533295,390.506378 258.157104,392.601379  C257.150238,392.887695 256.415192,392.926147 255.317108,392.901550  C254.759628,388.036560 259.000763,385.060333 259.976135,380.364349  C259.146118,377.657562 260.368896,375.601227 261.533508,373.983215  C267.932343,365.093231 272.169159,354.870300 279.052917,345.856262  C279.756317,344.928436 280.374207,344.544159 281.528320,344.732483 z"></path><path fill="#77A6ED" opacity="1.000000" stroke="none" d="M258.263947,392.908661  C257.849335,387.106995 261.316559,382.562073 263.770874,377.925720  C269.136078,367.790680 275.496216,358.182343 281.735199,348.178955  C283.692261,350.066772 281.552307,351.195251 280.854492,352.664612  C275.264618,364.434448 266.980896,374.718689 262.013702,386.842682  C261.300293,388.583954 260.895782,390.276550 260.951202,392.521667  C260.168152,392.938232 259.405396,392.953186 258.263947,392.908661 z"></path><path fill="#4D8BE9" opacity="1.000000" stroke="none" d="M191.100433,126.860626  C188.561615,125.877106 186.956955,124.755920 189.849426,122.816528  C195.411118,119.087440 200.758896,115.145912 205.327606,110.205360  C205.657013,109.849152 206.604095,110.064133 207.654709,110.028793  C209.405365,111.824478 208.632751,113.557831 207.725403,115.616837  C207.001938,116.498589 206.341415,116.799286 205.290131,117.053131  C204.014603,117.340065 202.855988,117.062172 202.210190,118.536774  C201.966553,119.244675 201.812683,119.652290 201.494247,120.367737  C199.089218,124.564995 194.991913,125.592545 191.100433,126.860626 z"></path><path fill="#71A3ED" opacity="1.000000" stroke="none" d="M156.036163,176.493164  C158.612579,176.391510 160.129456,175.290710 160.596954,172.740707  C161.072784,170.145248 161.535522,167.547256 162.034866,164.956329  C162.382812,163.150970 162.665573,161.267883 165.401901,160.930618  C167.221268,161.974960 166.550751,163.254578 165.974365,164.356003  C164.381393,167.400055 164.508606,170.937027 162.868805,174.329254  C161.801331,176.291473 161.851486,177.999741 162.456314,180.087509  C162.978668,181.439850 163.008728,182.427185 162.256271,183.703018  C162.025162,184.011749 161.920166,184.466141 161.867722,184.693344  C160.314957,186.359741 158.624496,186.406631 156.462250,185.326752  C156.080444,182.347244 156.054276,179.643951 156.036163,176.493164 z"></path><path fill="#9CBFF3" opacity="1.000000" stroke="none" d="M161.924500,193.605713  C161.955780,195.715225 161.961670,197.429871 161.958969,199.572968  C161.959473,201.071930 161.981537,202.145050 161.005737,203.334274  C159.368622,204.189484 158.060913,204.221298 156.457794,203.237640  C156.116043,199.628174 156.087067,196.280441 156.102264,192.478516  C157.185883,190.973419 158.457642,190.826981 160.209900,191.204529  C161.345917,191.734192 161.740875,192.389984 161.924500,193.605713 z"></path><path fill="#73A4ED" opacity="1.000000" stroke="none" d="M162.766602,226.014282  C160.347427,225.551102 161.103317,223.377975 160.565704,221.990112  C159.852432,220.148788 159.163956,218.640015 156.432007,218.975433  C156.035721,216.913940 156.028000,214.871613 156.062393,212.392029  C157.671005,210.650467 159.352661,210.571716 161.465530,211.778107  C161.803741,212.073410 161.913116,212.531738 161.966400,212.761246  C163.354904,216.972412 163.534760,221.097626 163.297241,225.624237  C163.052444,226.004196 162.861771,226.008270 162.766602,226.014282 z"></path><path fill="#B8D1F6" opacity="1.000000" stroke="none" d="M190.848923,126.902756  C193.729431,123.960495 198.153748,123.809433 200.559113,120.051285  C201.315414,119.566437 201.824478,119.436752 202.748962,119.629868  C204.265869,121.296768 203.799561,122.795135 202.869598,124.614548  C201.827820,125.912239 200.703735,126.399414 199.205719,126.906075  C197.562790,127.240875 196.424774,127.729790 195.730728,129.385590  C195.260788,130.032944 194.912277,130.332123 194.188065,130.724030  C193.137451,131.067307 192.403015,131.126419 191.281403,131.091339  C190.393204,130.977829 189.908966,130.818359 189.145233,130.345566  C188.711411,129.882370 188.581039,129.659531 188.458878,129.049500  C189.530701,128.693207 190.436096,128.463364 190.848923,126.902756 z"></path><path fill="#8FB6F1" opacity="1.000000" stroke="none" d="M161.885269,211.732666  C160.176208,212.045135 158.548691,212.016846 156.512848,211.971680  C156.080109,209.260818 156.055695,206.566849 156.088165,203.424377  C157.477600,202.988251 158.810165,203.000610 160.544586,203.018768  C162.729462,204.831528 161.690765,207.128372 162.032684,209.592239  C162.021439,210.461411 161.994125,210.926666 161.885269,211.732666 z"></path><path fill="#D2E2F9" opacity="1.000000" stroke="none" d="M287.526733,110.128525  C287.579071,113.076485 289.045837,114.644638 291.562225,115.889534  C293.703247,116.948738 296.566254,116.746101 297.970367,119.628754  C297.355133,120.814354 296.430908,120.936111 295.121643,120.859344  C293.597382,120.511902 292.745728,119.249168 291.020752,119.626389  C290.065033,119.670723 289.467804,119.515953 288.706970,118.929108  C287.972473,118.060654 287.498535,117.376793 286.511139,116.744598  C285.156464,115.715546 284.329590,114.667122 283.651917,113.076088  C283.205627,112.072502 283.214355,111.391548 283.751495,110.436638  C285.030334,110.135086 286.082062,110.108849 287.526733,110.128525 z"></path><path fill="#4D8BE9" opacity="1.000000" stroke="none" d="M188.240417,128.517776  C188.608673,128.910263 188.750229,129.158188 188.963715,130.017105  C188.911728,130.761063 188.787796,130.894012 188.455307,131.205582  C188.099182,131.494278 187.951599,131.604324 187.584747,131.881699  C187.077271,132.296036 186.820496,132.572754 186.443817,133.139343  C185.633484,134.774445 185.309433,136.338791 183.709320,137.490570  C182.909576,137.695419 182.447647,137.639297 181.731415,137.235840  C179.822067,133.060547 181.697815,130.379257 184.565857,127.949303  C185.991394,126.741516 186.963531,127.447472 188.240417,128.517776 z"></path><path fill="#77A6ED" opacity="1.000000" stroke="none" d="M346.947754,224.512238  C344.562897,224.758423 343.130737,225.375031 342.658997,228.162430  C342.399323,229.696808 342.643158,231.806274 340.476349,232.987411  C340.171478,228.748062 342.215332,224.879974 343.047333,220.726273  C343.406433,218.933472 344.787964,219.049606 346.483704,218.955612  C346.901459,220.649582 346.932129,222.367874 346.947754,224.512238 z"></path><path fill="#8FB6F1" opacity="1.000000" stroke="none" d="M161.209305,191.744797  C159.610184,191.986237 158.275360,191.997375 156.543503,192.016418  C156.113342,189.988434 156.080246,187.952560 156.076874,185.483612  C157.741516,185.015701 159.376404,184.980881 161.413300,184.933304  C161.833420,185.129425 161.851547,185.338318 161.813034,185.856552  C161.570831,186.593124 161.568466,187.025818 161.801361,187.795029  C161.974030,189.283615 162.091537,190.443741 161.209305,191.744797 z"></path><path fill="#B8D1F6" opacity="1.000000" stroke="none" d="M213.810837,110.352921  C214.806473,110.097054 215.555176,110.062859 216.673126,110.095428  C218.930984,113.170334 216.065704,114.637032 214.674286,116.937195  C214.208801,117.349167 214.002625,117.489639 213.455475,117.780563  C211.453430,118.338753 209.822983,118.892929 207.732025,118.951385  C207.138123,118.853462 206.907196,118.784584 206.375458,118.519432  C205.337265,117.035149 206.376968,116.726334 207.412064,116.026260  C208.013306,115.162552 208.551605,114.739029 209.446686,114.219101  C211.608170,113.544350 212.440353,111.899704 213.810837,110.352921 z"></path><path fill="#DAE7FA" opacity="1.000000" stroke="none" d="M214.274658,117.186523  C213.867950,114.374496 217.268951,113.534569 217.023590,110.514015  C218.107071,110.114212 219.171799,110.066231 220.630630,110.089577  C221.011017,111.178307 220.997269,112.195724 220.976715,113.594795  C219.567459,116.470474 217.285263,117.330246 214.274658,117.186523 z"></path><path fill="#71A3ED" opacity="1.000000" stroke="none" d="M210.249115,114.674683  C209.478943,115.229736 208.984344,115.496574 208.226990,115.863495  C207.737274,116.117683 207.510284,116.271782 207.068817,116.074661  C207.236740,114.073593 207.619125,112.423752 208.023468,110.408974  C208.796997,110.039879 209.548569,110.035728 210.674805,110.068375  C212.260529,111.702148 211.736786,113.086487 210.249115,114.674683 z"></path><path fill="#B8D1F6" opacity="1.000000" stroke="none" d="M181.335327,137.233353  C181.983292,136.919937 182.501022,136.843674 183.410675,136.794067  C185.729370,140.090790 182.579422,141.086227 180.411072,143.115112  C179.466782,143.340225 179.219833,143.284134 178.728943,142.936920  C178.183350,141.912659 178.172379,141.178650 178.649902,140.108017  C179.615952,139.005066 180.410522,138.237793 181.335327,137.233353 z"></path><path fill="#8FB6F1" opacity="1.000000" stroke="none" d="M210.328857,114.946335  C210.317062,113.581398 210.660583,112.199890 211.026794,110.461784  C211.802887,110.075768 212.556320,110.046364 213.683762,110.074097  C214.069626,112.529678 213.071457,114.218033 210.328857,114.946335 z"></path><path fill="#8FB6F1" opacity="1.000000" stroke="none" d="M178.468933,139.782928  C178.855179,140.546555 178.888947,141.320770 178.894867,142.479767  C178.312637,143.559677 177.588028,143.685577 176.438492,143.279297  C176.079788,142.283859 176.050568,141.501495 176.006393,140.325745  C176.699783,139.886063 177.408127,139.839783 178.468933,139.782928 z"></path><path fill="#73A4ED" opacity="1.000000" stroke="none" d="M245.369904,392.980255  C245.029037,391.877655 245.027893,390.787872 245.077057,389.287781  C247.113327,389.204559 246.960800,390.748352 247.036194,392.542114  C246.614044,392.934174 246.161835,392.963593 245.369904,392.980255 z"></path><path fill="#E6EEFC" opacity="1.000000" stroke="none" d="M283.647736,110.103142  C283.981354,110.879326 283.984131,111.597328 283.976990,112.674324  C283.808014,113.138359 283.649017,113.243401 283.249878,113.193314  C282.139862,112.543457 282.004761,111.713081 281.992401,110.499115  C282.429901,110.131218 282.873383,110.088089 283.647736,110.103142 z"></path><path fill="#FEFEFF" opacity="1.000000" stroke="none" d="M282.708832,113.326370  C283.009796,113.038200 283.488800,113.031647 283.727905,113.032486  C285.282898,113.451942 285.741913,114.690742 286.737000,115.833817  C287.523743,116.540665 288.057098,117.072548 288.809509,117.784203  C289.483398,118.287849 289.947449,118.602386 290.707153,118.933052  C291.872253,119.018539 292.762726,118.995354 293.785522,119.726082  C295.102692,119.961403 296.163391,119.991570 297.622192,120.001236  C298.020294,119.980743 298.471680,120.038818 298.696899,120.071121  C300.354584,121.256500 301.544525,122.660980 303.114319,124.142044  C303.813812,124.795738 304.314819,125.149818 305.287048,125.196495  C306.257599,125.182312 306.863373,125.389297 307.682800,125.852249  C309.475586,127.914940 311.981750,128.835526 312.994446,131.603333  C314.060638,133.056183 314.995117,134.244980 316.674072,135.041687  C317.947784,136.206467 318.909271,137.292923 319.934784,138.690414  C321.168701,140.196640 322.359772,141.371048 323.711334,142.825256  C323.907135,143.070312 323.968109,143.524780 323.993591,143.752625  C325.036926,145.024658 325.165436,146.473816 325.835083,148.043594  C326.442139,150.986038 328.628784,152.130356 330.723267,153.786957  C330.949127,154.020477 331.048004,154.458603 331.077087,154.681274  C331.990082,156.229294 332.583557,157.681976 333.060150,159.522797  C333.298187,160.585114 333.344147,161.399551 334.352814,162.022186  C335.333710,162.527161 335.967468,163.010681 336.713409,163.835724  C336.949432,164.482376 336.996552,164.890366 337.068878,165.605316  C337.452759,166.372620 337.800049,166.839386 337.975586,167.709930  C338.034668,168.723190 338.064362,169.446396 338.109558,170.531158  C338.954590,171.956833 339.002777,173.202560 338.938782,174.828598  C338.677887,176.930298 337.794495,178.703934 339.331299,180.674561  C339.647095,181.420181 339.730011,181.874954 339.737061,182.690338  C339.252075,185.323547 338.813171,187.604416 340.504883,190.038666  C340.772552,190.887711 340.826416,191.399155 340.774231,192.319275  C340.412994,199.343552 339.898071,205.952759 339.369751,212.965057  C339.368469,214.418030 339.313202,215.463104 339.084747,216.863312  C338.604553,218.782639 338.072113,220.326324 338.598083,222.301941  C338.937256,223.511749 338.966125,224.413559 338.892853,225.657593  C338.845367,226.705627 338.829285,227.417511 338.764130,228.482529  C338.376465,229.445709 337.962219,230.001785 337.290161,230.799896  C337.024139,231.785980 336.975830,232.501480 336.894226,233.573975  C336.611023,234.474411 336.306274,234.975723 335.527527,235.433563  C334.709930,235.747894 334.212921,236.013489 333.855103,236.877502  C333.019989,239.039185 332.430847,240.950516 332.034943,243.281616  C332.014862,245.405960 331.583771,247.047363 330.384277,248.839081  C330.153870,249.868515 330.119537,250.581039 330.065033,251.649689  C329.932709,252.172287 329.820618,252.338760 329.491211,252.709198  C328.819946,253.296844 328.425995,253.723053 328.210571,254.621063  C327.849274,256.851288 326.953766,258.542603 325.889832,260.502533  C325.131805,261.586609 324.496674,262.384369 324.771820,263.843567  C324.558990,265.528412 323.842163,266.640381 323.110626,267.757751  C315.587585,279.248138 310.818054,292.238892 303.371674,303.795990  C299.913696,309.162872 295.809082,314.357269 294.870117,321.410217  C294.219849,322.887054 293.340149,323.696167 292.044128,324.572754  C289.599854,325.805023 288.563721,327.514313 288.725891,330.256104  C288.674225,332.590057 287.768372,334.151184 285.952332,335.589172  C284.259888,336.619843 282.953522,337.514252 283.271973,339.792603  C283.254364,340.557587 283.170502,340.985474 282.941803,341.707977  C282.681519,342.185577 282.566071,342.368622 282.239197,342.797943  C282.024231,343.462830 282.020660,343.881439 281.940521,344.605408  C281.327026,345.095093 280.790161,345.279419 280.084534,345.706635  C274.741180,351.351044 270.940399,357.689697 267.786652,364.389404  C265.333038,369.601654 260.332886,373.371704 259.200439,379.701782  C257.886200,381.832703 256.881042,383.736603 255.687622,385.514099  C253.510468,388.756805 250.825424,388.867889 249.276718,385.295746  C245.535736,376.667023 239.607788,369.311096 235.686188,360.760101  C233.113831,355.151062 228.358261,350.552917 225.710007,344.966522  C222.676514,338.567444 217.890244,333.380829 214.987610,326.788940  C212.137512,320.316376 208.467102,313.904297 204.327576,307.987091  C202.884735,305.924652 201.221985,304.082397 200.744614,301.555969  C199.699280,296.023590 195.812027,291.792145 193.161194,287.241455  C186.336060,275.524750 182.279755,262.476044 174.865295,251.100784  C173.594101,249.150497 173.009644,246.346115 173.124985,243.985992  C173.342789,239.528900 171.738373,235.818558 169.513229,232.283173  C168.052521,229.962357 167.327835,227.549591 166.940994,224.865494  C164.633896,208.857040 165.644394,192.787888 166.128815,176.746887  C166.250488,172.717545 167.211227,168.619354 170.095383,165.202164  C172.531982,162.315231 172.802658,158.518143 173.024582,154.430130  C172.437988,153.561752 172.236465,152.944290 172.311234,151.903717  C172.488266,151.376099 172.598312,151.180252 172.988953,150.808105  C173.483780,150.605972 173.698013,150.580154 174.224854,150.600189  C175.481171,150.856598 176.449966,151.251236 177.434723,150.037170  C178.401398,148.952560 178.815659,147.967209 178.858582,146.491135  C178.898972,145.712875 178.953629,145.272324 179.129456,144.517792  C179.337265,144.012329 179.451691,143.824310 179.814423,143.418671  C180.749344,140.889572 183.635345,140.091141 183.882538,137.176529  C184.432602,135.547638 185.062561,134.274567 185.964844,132.938873  C186.395523,132.745697 186.553879,132.615112 186.985535,132.343979  C188.234085,131.969299 189.243576,131.892822 190.475632,131.456299  C191.671783,130.995895 192.687241,130.920013 193.736969,130.155487  C194.254166,129.823364 194.513779,129.630508 194.827896,129.140625  C195.804245,128.269409 196.506668,127.412849 197.778534,126.772888  C199.331635,126.500198 200.586670,126.342140 201.749939,125.140312  C202.338165,123.542549 202.733246,122.192451 203.133087,120.486267  C202.943436,119.998962 202.749039,119.867737 202.610672,119.388092  C203.072098,118.430161 203.657257,118.048851 204.640930,117.645294  C205.207947,117.557076 205.440033,117.571800 205.881439,117.865540  C206.090790,118.144554 206.451599,118.266777 206.641266,118.284149  C208.931854,119.423798 210.672592,118.054092 212.778488,117.255432  C213.028915,117.032738 213.497528,117.003593 213.730896,116.981537  C216.087082,116.059395 218.209930,115.159302 220.651337,114.117836  C240.136200,113.983871 259.302490,113.998856 278.468781,113.982132  C279.781891,113.980988 281.094849,113.742592 282.708832,113.326370 z"></path><path fill="#E1ECFB" opacity="1.000000" stroke="none" d="M259.235199,379.991241  C258.748535,377.936066 258.989899,375.648560 260.167450,374.249878  C264.859436,368.676788 266.787079,361.436798 271.545563,355.950897  C274.288086,352.789093 274.533295,347.687958 279.575745,345.998779  C277.387512,350.321625 274.885315,354.709045 272.324890,359.062256  C268.337799,365.841064 264.311157,372.596619 260.156738,379.682861  C259.839508,380.001312 259.666840,379.998993 259.235199,379.991241 z"></path><path fill="#B8D1F6" opacity="1.000000" stroke="none" d="M172.786270,150.952332  C173.096207,151.847214 173.076706,152.569138 173.038742,153.652008  C169.064575,160.548981 165.954376,167.453491 163.591095,174.937775  C163.038467,175.179214 162.838669,175.320206 162.358154,175.225067  C162.900436,170.425110 163.916306,165.915878 165.812866,161.287354  C167.257568,159.808655 168.114532,158.273575 168.844254,156.277512  C170.580521,154.562866 169.441925,151.243790 172.786270,150.952332 z"></path><path fill="#B8D1F6" opacity="1.000000" stroke="none" d="M163.374634,226.003693  C162.762115,221.959167 161.461533,218.006454 161.982620,213.440704  C165.806519,214.301743 163.328659,217.564896 164.092545,219.825729  C164.661499,221.509659 164.719498,223.366241 164.995804,225.576477  C164.556641,226.005753 164.126740,226.004471 163.374634,226.003693 z"></path><path fill="#B8D1F6" opacity="1.000000" stroke="none" d="M162.331970,209.713104  C160.130798,208.223068 161.348099,205.900970 160.960144,203.441071  C161.110214,202.157547 161.273972,201.290512 161.694061,200.212463  C163.877213,203.024078 162.963257,206.247009 162.331970,209.713104 z"></path><path fill="#B8D1F6" opacity="1.000000" stroke="none" d="M160.981476,192.272751  C160.970963,190.542480 160.996918,189.109894 161.036011,187.246918  C161.204269,186.751495 161.359390,186.686432 161.694550,186.798187  C163.809097,188.974380 162.994080,191.252533 162.242737,193.747574  C161.639236,193.523865 161.328583,193.047150 160.981476,192.272751 z"></path><path fill="#9CBFF3" opacity="1.000000" stroke="none" d="M161.786499,175.197556  C162.270340,174.990906 162.463242,174.992889 162.947205,175.016556  C163.175476,176.418442 163.112671,177.798676 163.052216,179.594238  C162.860367,180.143967 162.666214,180.278366 162.179398,180.213242  C160.523010,178.582596 160.819061,177.010544 161.786499,175.197556 z"></path><path fill="#B8D1F6" opacity="1.000000" stroke="none" d="M161.903946,180.413223  C162.081177,180.011551 162.275635,180.009384 162.762299,180.008392  C164.311829,181.433762 164.574753,182.768417 162.364166,183.961288  C161.990494,182.945404 161.955826,181.879074 161.903946,180.413223 z"></path><path fill="#71A3ED" opacity="1.000000" stroke="none" d="M161.868317,186.769318  C161.874573,186.974991 161.461533,186.894180 161.255341,186.855377  C161.162994,186.626877 161.305496,186.461990 161.616516,186.243896  C161.756378,186.165909 161.862045,186.563644 161.868317,186.769318 z"></path><path fill="#D7E5FA" opacity="1.000000" stroke="none" d="M294.080627,322.103271  C294.652740,316.601318 296.786530,312.078522 299.634918,307.408295  C303.032349,301.837677 306.472229,296.172180 309.613647,290.385162  C314.041656,282.227997 316.774902,273.096680 323.004028,265.921967  C323.500458,265.350189 323.641968,264.470245 323.957520,263.370728  C324.011749,262.408508 324.197968,261.860962 324.753845,261.154449  C325.623444,258.867493 326.304321,256.806000 327.000214,254.375183  C327.545868,253.470047 328.079742,252.937469 328.799377,252.191071  C329.168091,251.982330 329.343414,251.979858 329.781799,251.991608  C330.685699,252.423706 330.970551,253.088058 330.597504,253.700089  C326.857758,259.835938 325.381500,266.956665 322.016388,273.627686  C322.124664,274.180573 322.258148,274.367767 322.301483,274.886536  C320.500580,276.541382 319.871246,278.370117 319.645782,280.746948  C318.659302,282.269287 318.156799,283.637054 317.766205,285.389221  C317.302185,286.434082 316.684387,287.009216 316.142578,287.999359  C315.896027,288.441193 315.793976,288.615814 315.518738,289.038483  C314.655060,290.012512 313.978210,290.746185 313.825592,292.121094  C313.646210,292.602386 313.552216,292.787018 313.255859,293.208038  C311.993835,294.139771 311.192657,295.013611 310.981689,296.655212  C310.733551,297.596375 310.451599,298.178528 309.924500,299.002777  C309.101990,300.156860 308.251068,300.833771 307.296173,301.853455  C307.109619,302.115845 307.033203,302.536377 306.984741,302.744507  C305.566864,304.372498 304.886200,306.134430 304.362183,308.325378  C304.159180,309.292725 303.968781,309.924683 303.529602,310.819550  C303.024384,311.405182 302.663239,311.657715 301.970825,311.988525  C300.836365,312.438843 300.337708,313.019592 300.252930,314.259125  C300.181244,315.460083 300.102783,316.335449 299.701294,317.485474  C298.456909,318.630920 297.805817,319.692749 297.900085,321.458923  C297.713409,322.186096 297.510773,322.555237 296.969055,323.041382  C296.042328,323.315552 295.697754,322.833160 295.040009,322.430359  C294.602386,322.381165 294.428894,322.342804 294.080627,322.103271 z"></path><path fill="#D2E2F9" opacity="1.000000" stroke="none" d="M339.980438,192.413010  C339.970459,191.560760 339.970428,191.123199 339.969116,190.357483  C338.444824,188.142410 339.212006,185.895264 338.976776,183.400970  C338.964081,182.562393 338.963226,182.126770 338.959808,181.364410  C337.797729,179.796738 338.060455,178.238052 337.994202,176.375504  C337.996796,174.581238 338.004913,173.163086 338.069061,171.318832  C341.449524,174.106216 341.059082,178.657227 341.749329,182.571091  C344.293884,196.999420 343.279663,211.376648 339.178162,225.768143  C338.000336,225.432953 337.985565,224.551163 337.978546,223.333923  C338.029755,221.543686 338.001129,220.085129 338.028503,218.314606  C338.034088,216.942505 338.033203,215.882858 338.039001,214.425873  C340.252075,207.104523 340.049133,199.959503 339.980438,192.413010 z"></path><path fill="#77A6ED" opacity="1.000000" stroke="none" d="M339.779510,235.214417  C341.899231,236.543732 340.558228,238.228851 339.922699,239.497437  C336.721130,245.887924 334.865723,252.735504 332.618866,259.461212  C331.925690,261.536102 331.331085,264.020660 328.438965,265.013794  C331.892822,255.192413 335.690979,245.309860 339.779510,235.214417 z"></path><path fill="#D2E2F9" opacity="1.000000" stroke="none" d="M336.913971,163.709930  C336.123810,163.805084 335.345306,163.535767 334.279510,163.137497  C333.476898,162.461563 332.947479,161.928207 332.239380,161.176056  C331.709106,159.205627 331.365570,157.446243 331.064087,155.295410  C334.310089,156.846344 335.409790,160.239319 336.913971,163.709930 z"></path><path fill="#D2E2F9" opacity="1.000000" stroke="none" d="M307.795349,125.765175  C307.176056,126.072891 306.451965,126.053955 305.364502,126.025787  C304.406860,125.981285 303.866058,125.799057 303.176666,125.237068  C301.276123,123.950447 299.717773,122.741539 298.960693,120.429962  C302.331665,121.081894 304.826691,123.563339 307.795349,125.765175 z"></path><path fill="#E6EEFC" opacity="1.000000" stroke="none" d="M330.976837,153.670746  C327.845398,154.129166 326.206848,152.253204 325.051270,149.334290  C326.341095,147.909485 327.391296,148.629883 328.702179,149.748260  C330.418152,150.648590 331.049805,151.778229 330.976837,153.670746 z"></path><path fill="#D7E5FA" opacity="1.000000" stroke="none" d="M331.316528,243.220764  C331.569000,240.891342 332.141022,238.783310 332.861664,236.341064  C333.386993,235.629486 333.841431,235.458878 334.726776,235.631927  C335.191742,235.996246 335.303314,236.223068 335.239746,236.786194  C334.550507,238.971786 334.036438,240.821091 333.294952,242.850494  C332.655548,243.394470 332.178436,243.531662 331.316528,243.220764 z"></path><path fill="#D2E2F9" opacity="1.000000" stroke="none" d="M328.958618,149.660858  C327.891479,149.690659 326.799713,149.372147 325.366089,149.017914  C324.257568,147.667313 323.847748,146.264389 323.997131,144.354706  C326.658325,144.835175 327.666687,147.193161 328.958618,149.660858 z"></path><path fill="#D2E2F9" opacity="1.000000" stroke="none" d="M330.981323,243.389282  C331.456635,243.002274 331.916260,243.005173 332.721710,243.019318  C332.774933,245.172852 333.808716,247.798904 330.541809,249.070602  C329.513306,247.228653 331.005432,245.614670 330.981323,243.389282 z"></path><path fill="#D2E2F9" opacity="1.000000" stroke="none" d="M316.877106,134.798248  C314.124420,136.726791 313.964874,134.084244 313.060364,132.277206  C314.850800,131.978226 315.842163,133.179626 316.877106,134.798248 z"></path><path fill="#D2E2F9" opacity="1.000000" stroke="none" d="M323.914917,142.719574  C321.851471,142.820221 320.648834,141.592545 320.016541,139.346176  C322.141022,139.151764 323.325836,140.417725 323.914917,142.719574 z"></path><path fill="#77A6ED" opacity="1.000000" stroke="none" d="M321.694519,275.220978  C321.865967,274.861572 321.913605,274.425385 321.952393,274.209351  C322.730591,273.985962 323.469971,273.978607 324.577637,273.960480  C324.989960,275.536438 324.273743,276.558716 322.374054,276.992493  C321.654053,276.620239 321.484009,276.137115 321.694519,275.220978 z"></path><path fill="#D2E2F9" opacity="1.000000" stroke="none" d="M335.403961,237.030487  C335.047607,236.933182 335.030609,236.743881 335.001282,236.269745  C334.867737,235.804947 334.746460,235.624954 334.807709,235.175415  C335.454895,234.654800 335.919525,234.403732 336.622559,234.041824  C337.014771,235.129074 337.191620,236.335739 335.403961,237.030487 z"></path><path fill="#D2E2F9" opacity="1.000000" stroke="none" d="M338.237671,167.837646  C337.683258,167.512436 337.361511,167.024887 337.066925,166.224823  C338.037292,166.121750 339.072815,166.259155 338.237671,167.837646 z"></path><path fill="#77A6ED" opacity="1.000000" stroke="none" d="M327.564819,267.976074  C327.952850,268.839661 327.752777,269.620636 326.424805,270.016266  C326.050262,269.158142 326.253723,268.379791 327.564819,267.976074 z"></path><path fill="#D2E2F9" opacity="1.000000" stroke="none" d="M337.396362,231.011826  C337.003052,230.169830 337.176788,229.393921 338.420807,228.925964  C338.953888,229.809494 338.761993,230.580933 337.396362,231.011826 z"></path><path fill="#73A4ED" opacity="1.000000" stroke="none" d="M243.950470,385.663727  C242.499008,385.986450 241.636429,385.157867 240.955536,383.917114  C238.698486,379.804230 236.377838,375.726288 234.081696,371.272980  C237.349136,371.625305 238.026062,374.701416 239.460175,376.999176  C241.121796,379.661407 242.454803,382.528687 243.950470,385.663727 z"></path><path fill="#73A4ED" opacity="1.000000" stroke="none" d="M177.893158,269.691223  C174.478241,267.495850 174.562210,263.252380 172.964539,259.429382  C176.615891,261.500366 176.322861,265.857758 177.893158,269.691223 z"></path><path fill="#73A4ED" opacity="1.000000" stroke="none" d="M166.976898,242.646835  C164.058701,241.316437 163.362061,238.566193 163.652649,235.239838  C165.438354,237.214615 166.529526,239.607147 166.976898,242.646835 z"></path><path fill="#73A4ED" opacity="1.000000" stroke="none" d="M171.945465,257.654205  C168.748657,256.448090 169.053818,253.241211 168.699188,250.228333  C170.836548,252.061386 170.825195,254.900391 171.945465,257.654205 z"></path><path fill="#73A4ED" opacity="1.000000" stroke="none" d="M182.882370,278.735687  C180.592346,278.508789 180.239883,276.662445 179.970520,274.396179  C181.910309,274.833923 182.386948,276.626190 182.882370,278.735687 z"></path><path fill="#73A4ED" opacity="1.000000" stroke="none" d="M211.870605,331.742371  C209.592514,331.499664 209.255951,329.647644 208.973450,327.395386  C210.911743,327.837311 211.393661,329.624176 211.870605,331.742371 z"></path><path fill="#73A4ED" opacity="1.000000" stroke="none" d="M202.961014,315.684662  C200.956299,315.879974 200.031509,314.726318 199.959473,312.414978  C201.451263,312.697876 202.527496,313.725403 202.961014,315.684662 z"></path><path fill="#73A4ED" opacity="1.000000" stroke="none" d="M230.948975,363.694519  C228.939514,363.869568 228.016418,362.713806 227.978119,360.389832  C229.434097,360.719788 230.553162,361.713715 230.948975,363.694519 z"></path><path fill="#73A4ED" opacity="1.000000" stroke="none" d="M207.961853,325.679230  C205.916809,325.664154 205.186569,324.384430 205.694199,322.206360  C207.206238,322.752197 207.547333,324.064331 207.961853,325.679230 z"></path><path fill="#73A4ED" opacity="1.000000" stroke="none" d="M168.894623,247.740936  C167.294525,247.770233 166.677689,246.956787 167.644836,245.218903  C168.915878,245.497375 169.006058,246.411377 168.894623,247.740936 z"></path><path fill="#73A4ED" opacity="1.000000" stroke="none" d="M163.860229,232.758652  C162.263901,232.745239 161.676254,231.913986 162.690231,230.206207  C163.938568,230.526489 164.001587,231.439102 163.860229,232.758652 z"></path><path fill="#73A4ED" opacity="1.000000" stroke="none" d="M215.972824,339.685120  C214.524719,339.951935 213.969681,339.091888 213.972656,337.383209  C215.072495,337.431366 215.756607,338.189880 215.972824,339.685120 z"></path><path fill="#73A4ED" opacity="1.000000" stroke="none" d="M193.957779,300.700104  C192.512924,300.942261 191.972260,300.072906 191.976929,298.379089  C193.075562,298.436462 193.789001,299.172791 193.957779,300.700104 z"></path><path fill="#73A4ED" opacity="1.000000" stroke="none" d="M189.880142,291.757385  C188.469940,291.893738 187.955948,291.018066 187.975739,289.373718  C189.096207,289.442688 189.797928,290.197601 189.880142,291.757385 z"></path><path fill="#73A4ED" opacity="1.000000" stroke="none" d="M179.950409,273.706696  C178.501038,273.936737 177.966827,273.060303 177.990875,271.359802  C179.087585,271.433014 179.772797,272.195679 179.950409,273.706696 z"></path><path fill="#73A4ED" opacity="1.000000" stroke="none" d="M186.978561,287.679535  C185.531433,287.947327 184.975952,287.087280 184.979828,285.377075  C186.070831,285.433167 186.765259,286.182251 186.978561,287.679535 z"></path><path fill="#73A4ED" opacity="1.000000" stroke="none" d="M213.958740,336.720825  C213.035263,336.856812 211.961731,336.814240 212.704193,335.185272  C213.266174,335.476532 213.611893,335.943756 213.958740,336.720825 z"></path><path fill="#73A4ED" opacity="1.000000" stroke="none" d="M198.889282,309.770752  C197.962463,309.854889 196.934723,309.729889 197.699677,308.181641  C198.249435,308.492096 198.585037,308.974426 198.889282,309.770752 z"></path><path fill="#73A4ED" opacity="1.000000" stroke="none" d="M191.885223,296.770752  C190.961685,296.860138 189.945312,296.735077 190.669876,295.192444  C191.223526,295.494598 191.571304,295.974304 191.885223,296.770752 z"></path><path fill="#BCD3F7" opacity="1.000000" stroke="none" d="M293.643646,322.049652  C294.093018,321.929718 294.280243,321.957428 294.750305,322.009644  C296.400940,324.173065 294.364807,325.292114 293.580170,326.759094  C292.423309,328.922028 291.113647,331.006012 290.335571,333.726501  C290.150238,334.521362 290.004517,334.961853 289.667053,335.695435  C288.675629,337.079132 287.376190,337.616638 286.303955,338.898987  C285.649506,339.472504 285.165802,339.762329 284.409271,340.128418  C282.522919,338.565826 283.497467,337.110657 284.736084,335.332825  C286.800995,334.114716 287.305389,332.366455 287.928833,330.335083  C288.289276,327.916016 289.437408,326.217285 290.752625,324.237915  C291.782196,323.390045 292.581848,322.793671 293.643646,322.049652 z"></path><path fill="#9CBFF3" opacity="1.000000" stroke="none" d="M289.459076,334.314209  C289.709351,329.619476 292.763611,326.396576 294.991089,322.381775  C295.803619,321.209137 295.914215,321.852203 296.017456,322.710266  C296.635956,323.631042 296.775177,324.423584 296.251953,325.660950  C295.689850,326.469208 295.358368,326.919952 294.983765,327.659302  C294.460205,328.529480 293.918915,329.054840 293.208527,329.808350  C292.668610,331.080170 292.327484,332.151276 291.927155,333.557312  C291.312439,334.558685 290.599609,334.703888 289.459076,334.314209 z"></path><path fill="#77A6ED" opacity="1.000000" stroke="none" d="M298.678467,318.170410  C298.868347,316.818359 298.960785,315.832336 299.067261,314.475067  C299.360657,313.590149 299.625122,313.064789 300.458588,312.691101  C301.168335,312.712158 301.573517,312.754730 302.534363,312.927673  C303.095734,315.663818 301.636475,317.412201 299.444672,319.006775  C298.933960,318.897614 298.757446,318.717010 298.678467,318.170410 z"></path><path fill="#77A6ED" opacity="1.000000" stroke="none" d="M308.797058,299.374268  C309.291199,298.535278 309.558655,298.044098 309.953125,297.302490  C310.671722,296.436737 311.390381,296.283417 312.528625,296.679565  C312.459656,298.973480 311.202728,300.517181 309.369568,301.969421  C308.421509,301.346222 308.293610,300.574219 308.797058,299.374268 z"></path><path fill="#9CBFF3" opacity="1.000000" stroke="none" d="M303.371277,308.449249  C303.975311,306.307068 303.670624,303.813538 306.587097,302.980835  C307.184937,304.176758 306.938721,305.310181 306.170959,306.699982  C305.115356,307.468781 305.778442,310.224213 303.371277,308.449249 z"></path><path fill="#77A6ED" opacity="1.000000" stroke="none" d="M303.135010,308.496979  C304.419586,308.971344 304.979187,308.074738 305.800659,307.140991  C306.013916,309.268860 306.085846,311.545868 303.432190,312.997894  C303.087067,313.085358 303.030853,313.031158 303.001953,313.004944  C302.591888,312.576019 302.438232,312.099915 302.682861,311.197571  C302.924469,310.171936 302.995270,309.499084 303.135010,308.496979 z"></path><path fill="#9CBFF3" opacity="1.000000" stroke="none" d="M312.884064,296.658325  C312.161804,296.938202 311.468445,296.985382 310.427612,297.042297  C310.086060,295.368744 309.456543,293.387360 312.393066,292.860046  C313.728058,293.403259 313.479431,294.331116 313.187866,295.581451  C312.949768,295.958191 312.912964,296.425659 312.884064,296.658325 z"></path><path fill="#E1ECFB" opacity="1.000000" stroke="none" d="M284.672852,335.052795  C284.685059,336.483856 284.357269,337.956635 284.082947,339.817017  C284.136444,340.204651 283.725006,340.269775 283.531616,340.199707  C280.740173,338.545685 280.741974,338.536621 284.672852,335.052795 z"></path><path fill="#77A6ED" opacity="1.000000" stroke="none" d="M296.376953,325.959045  C296.021667,325.249054 296.021942,324.479645 296.013306,323.324127  C296.292603,322.809937 296.517914,322.610657 296.781616,322.134827  C297.745697,321.468842 297.362701,320.145599 298.693604,319.899506  C299.005127,322.267273 299.112427,324.566559 296.376953,325.959045 z"></path><path fill="#77A6ED" opacity="1.000000" stroke="none" d="M289.092834,334.416351  C289.815643,334.054840 290.500671,334.001465 291.526794,333.920166  C291.863312,335.616852 291.372345,337.082214 289.379089,337.981506  C288.667084,337.639618 288.503815,337.170105 288.752045,336.296051  C288.987030,335.551331 289.021057,335.137939 289.092834,334.416351 z"></path><path fill="#9CBFF3" opacity="1.000000" stroke="none" d="M288.611115,336.011353  C288.969116,336.424988 288.985260,336.885193 289.021149,337.690674  C288.519165,338.874390 287.681854,339.069763 286.458923,339.162872  C285.963531,337.538391 286.682983,336.501923 288.611115,336.011353 z"></path><path fill="#77A6ED" opacity="1.000000" stroke="none" d="M313.206116,295.823639  C312.937683,295.170563 312.925568,294.382935 312.837219,293.204407  C312.760956,292.813507 312.827271,292.371002 312.859802,292.149658  C313.232117,291.642731 313.550262,291.334686 314.462830,291.040894  C315.046814,291.801636 315.017853,292.528900 314.982269,293.619568  C314.471222,294.551697 313.966827,295.120392 313.206116,295.823639 z"></path><path fill="#9CBFF3" opacity="1.000000" stroke="none" d="M299.034546,319.780029  C298.487915,320.574677 297.957275,321.134491 297.154785,321.811890  C297.049164,320.556763 296.502563,318.958191 298.445007,317.923889  C298.837952,318.014709 298.899963,318.225037 299.036224,318.756775  C299.110443,319.078217 299.050537,319.545197 299.034546,319.780029 z"></path><path fill="#9CBFF3" opacity="1.000000" stroke="none" d="M308.714722,299.148560  C309.017853,299.775330 309.011963,300.524170 309.016235,301.648376  C308.599945,302.056030 308.173553,302.088379 307.428375,302.118286  C306.863647,300.858612 307.407532,299.961151 308.714722,299.148560 z"></path><path fill="#77A6ED" opacity="1.000000" stroke="none" d="M293.332825,329.966858  C293.042267,329.091309 293.285126,328.312744 294.623779,327.998901  C294.946259,328.888794 294.702057,329.667328 293.332825,329.966858 z"></path><path fill="#E1ECFB" opacity="1.000000" stroke="none" d="M282.276550,342.980896  C282.026093,342.713837 282.147980,342.438141 282.595154,342.109863  C282.706390,342.307556 282.615845,342.612579 282.276550,342.980896 z"></path><path fill="#77A6ED" opacity="1.000000" stroke="none" d="M316.729370,286.115417  C317.278564,284.291840 316.466583,282.370728 318.536133,281.035919  C319.736206,280.467743 319.365051,279.148193 320.691467,278.904358  C320.550568,283.555634 319.757080,287.954132 315.421326,291.010345  C315.075775,291.074402 315.018799,291.020630 314.989319,290.994812  C314.585449,290.565948 314.435028,290.091827 314.675812,289.195129  C314.843079,288.843567 314.895660,288.411957 314.937927,288.198669  C315.548859,287.478699 316.069916,286.925812 316.729370,286.115417 z"></path><path fill="#9CBFF3" opacity="1.000000" stroke="none" d="M321.122070,278.754456  C320.484863,279.573303 319.953125,280.133545 319.146606,280.805298  C319.158020,278.767120 318.211426,276.142792 321.505585,274.937073  C321.908295,275.343079 321.950592,275.824585 322.013153,276.667847  C321.764740,277.518341 321.496124,278.007080 321.122070,278.754456 z"></path><path fill="#B8D1F6" opacity="1.000000" stroke="none" d="M179.798981,143.720093  C180.002762,144.367111 179.971817,144.806198 179.939438,145.575439  C179.379868,146.547485 179.604263,147.536057 178.659515,148.225220  C177.840454,148.328583 177.360168,147.715408 176.487045,148.222580  C176.000107,148.135574 175.822006,148.020020 175.488907,147.619171  C175.157486,146.671951 175.196732,146.029449 175.675659,145.122101  C175.892136,144.438156 175.940399,144.043564 176.048828,143.357574  C176.800171,143.027725 177.491348,142.989258 178.524750,142.907684  C178.867004,142.864578 178.984375,142.976624 179.045700,143.029739  C179.259445,143.225952 179.411850,143.369049 179.798981,143.720093 z"></path><path fill="#6CA0ED" opacity="1.000000" stroke="none" d="M169.302460,153.105530  C169.008408,150.170975 169.146622,147.410355 172.633026,146.033295  C173.351395,146.324799 173.592728,146.727859 173.754410,147.550354  C173.728653,148.140274 173.681900,148.372879 173.477661,148.922607  C171.757706,150.262421 170.939240,151.974930 169.302460,153.105530 z"></path><path fill="#8FB6F1" opacity="1.000000" stroke="none" d="M168.967499,153.355331  C170.608734,152.118759 170.385361,149.695160 172.612488,149.006821  C173.330963,149.358292 173.508743,149.840515 173.300629,150.762756  C173.128311,151.124023 173.096542,151.138031 173.106110,151.131668  C170.507874,151.549057 171.499695,154.773819 169.226883,155.828293  C168.921082,155.207169 168.937439,154.466690 168.967499,153.355331 z"></path><path fill="#8FB6F1" opacity="1.000000" stroke="none" d="M173.395187,148.272186  C173.041718,147.597794 173.026199,147.139679 173.001953,146.337708  C173.741409,145.642227 174.489594,145.290604 175.540833,144.885864  C175.874725,145.599579 175.905579,146.366394 175.919800,147.515457  C175.310974,148.576263 174.568436,148.702744 173.395187,148.272186 z"></path><path fill="#8FB6F1" opacity="1.000000" stroke="none" d="M206.194870,117.866249  C206.090790,118.144554 205.650528,118.234703 205.426788,118.255363  C204.788116,118.367905 204.368881,118.431305 203.627136,118.438171  C203.141235,118.278275 202.973572,118.146652 202.766602,117.697739  C202.893967,116.980621 203.148331,116.650299 203.750122,116.197296  C204.713928,115.948029 205.431656,115.901733 206.501862,115.789429  C207.036301,115.778122 207.218246,115.832802 207.682220,115.925537  C207.409149,116.505043 206.854050,117.046494 206.194870,117.866249 z"></path><path fill="#71A3ED" opacity="1.000000" stroke="none" d="M203.643127,115.993561  C203.730255,116.481453 203.464294,116.968575 203.078857,117.707527  C202.586853,118.358673 202.130875,118.515862 201.284393,118.204391  C201.059204,116.513428 201.930603,115.968819 203.643127,115.993561 z"></path><path fill="#8FB6F1" opacity="1.000000" stroke="none" d="M200.954086,118.293198  C201.418289,117.979767 201.859253,117.981651 202.629791,117.971451  C202.959366,117.959358 203.022186,118.020401 203.053802,118.050697  C203.245163,118.263290 203.404922,118.445587 203.465240,118.977608  C203.365814,119.327332 203.260864,119.730286 203.199356,119.930237  C202.629242,120.078850 202.120651,120.027519 201.230804,119.920975  C200.876648,119.446686 200.903732,119.027603 200.954086,118.293198 z"></path><path fill="#F2F6FD" opacity="1.000000" stroke="none" d="M191.233459,131.839722  C190.280563,133.174591 189.173935,133.017258 187.800980,133.025391  C186.457825,132.515198 186.996643,131.980865 187.776154,131.354675  C188.111069,131.260498 188.327179,131.099930 188.672424,130.858398  C189.017670,130.616852 189.098923,130.349152 189.201874,130.252777  C189.652847,130.182724 190.000854,130.209061 190.612793,130.250214  C191.297104,130.584198 191.475800,131.011642 191.233459,131.839722 z"></path><path fill="#DAE7FA" opacity="1.000000" stroke="none" d="M198.275604,126.748383  C197.523010,128.040894 196.806488,128.798187 195.269135,128.925720  C195.061142,127.412186 195.762131,126.380814 197.649902,126.017532  C198.166306,126.150902 198.344208,126.315811 198.275604,126.748383 z"></path><path fill="#F2F6FD" opacity="1.000000" stroke="none" d="M198.406311,127.011375  C198.022141,126.844429 198.015167,126.672813 197.998291,126.243591  C199.079727,125.653389 200.171066,125.320801 201.602753,124.940430  C201.926910,127.147247 200.284241,126.970924 198.406311,127.011375 z"></path><path fill="#DAE7FA" opacity="1.000000" stroke="none" d="M191.339355,132.074356  C190.994598,131.725143 190.967102,131.303848 190.908173,130.573792  C191.641205,130.164017 192.405701,130.063019 193.552917,129.949493  C193.584198,131.075882 192.796173,131.733047 191.339355,132.074356 z"></path><path fill="#E6EEFC" opacity="1.000000" stroke="none" d="M293.984375,119.615677  C293.162292,119.787621 292.282593,119.644005 291.202820,119.224792  C292.136780,117.738258 293.135498,117.654587 293.984375,119.615677 z"></path><path fill="#E6EEFC" opacity="1.000000" stroke="none" d="M288.973328,117.654572  C288.099426,117.931740 287.311066,117.697136 287.034546,116.328232  C287.901947,116.064369 288.689941,116.299141 288.973328,117.654572 z"></path><path fill="#B8D1F6" opacity="1.000000" stroke="none" d="M187.727905,131.194931  C187.905807,131.686234 187.700546,132.111969 187.487350,132.774567  C187.479401,133.011444 187.045303,133.121094 187.045303,133.121094  C187.045303,133.121094 186.598206,133.100967 186.417694,132.988617  C186.103668,131.975250 186.443085,131.374069 187.727905,131.194931 z"></path><path fill="#DAE7FA" opacity="1.000000" stroke="none" d="M188.847595,130.510437  C189.017670,130.616852 188.710114,130.879349 188.648773,130.955109  C188.587418,131.030869 188.391586,130.682114 188.391586,130.682114  C188.391586,130.682114 188.677521,130.404007 188.847595,130.510437 z"></path><path fill="#DAE7FA" opacity="1.000000" stroke="none" d="M212.634186,117.022423  C211.710724,119.805420 209.562271,119.920868 206.944595,118.599899  C208.633774,117.871712 210.436615,117.441910 212.634186,117.022423 z"></path><path fill="#F2F6FD" opacity="1.000000" stroke="none" d="M180.036865,143.746124  C179.722977,143.883514 179.477264,143.732986 179.201813,143.279663  C179.107025,143.082855 179.588959,143.099686 179.825836,143.150360  C180.062729,143.201050 180.040009,143.564224 180.036865,143.746124 z"></path><path fill="#D7E5FA" opacity="1.000000" stroke="none" d="M261.113281,242.096863  C253.732727,244.750671 246.993423,244.939514 239.982635,241.663895  C234.858871,239.269913 229.090317,238.916840 224.256180,235.001938  C216.282379,228.544373 210.689575,220.840958 206.897125,211.387863  C202.176147,199.620346 203.409729,188.458420 207.593491,176.757919  C211.694351,165.289322 220.892532,158.754807 229.397614,151.601440  C234.598312,147.227310 241.998566,148.166992 248.465256,147.077332  C255.821335,145.837799 262.900360,148.638779 270.143402,149.271652  C271.082977,149.353745 272.003143,149.979309 272.875946,150.456268  C286.468201,157.883896 295.630798,169.500259 299.359589,184.015823  C301.537476,192.494064 302.074860,202.453125 298.260773,211.038422  C294.545898,219.400421 289.673309,227.044266 281.967499,233.004837  C275.662445,237.881897 268.953430,240.416016 261.113281,242.096863 z"></path><path fill="#E6EEFC" opacity="1.000000" stroke="none" d="M339.679565,192.294067  C342.236389,199.419174 340.885895,206.647614 338.427124,213.932968  C338.493347,206.882309 338.940979,199.736069 339.679565,192.294067 z"></path><path fill="#E6EEFC" opacity="1.000000" stroke="none" d="M338.689362,183.263123  C340.843872,184.804733 339.667480,187.120102 339.981445,189.607208  C336.442291,188.581207 338.310730,185.843704 338.689362,183.263123 z"></path><path fill="#E1ECFB" opacity="1.000000" stroke="none" d="M290.646240,324.035400  C290.825928,326.152649 289.571625,327.842834 288.250946,329.812683  C286.677124,327.205872 288.632751,325.700287 290.646240,324.035400 z"></path><path fill="#E6EEFC" opacity="1.000000" stroke="none" d="M337.759064,218.225525  C339.476410,219.380219 339.148956,220.948853 338.251678,222.775452  C336.535431,221.622955 336.848022,220.053467 337.759064,218.225525 z"></path><path fill="#E6EEFC" opacity="1.000000" stroke="none" d="M337.719421,176.237625  C339.493103,177.142410 338.847595,178.790970 338.973267,180.646057  C336.090576,180.298203 336.970306,178.320969 337.719421,176.237625 z"></path><path fill="#F2F6FD" opacity="1.000000" stroke="none" d="M177.461746,149.660400  C178.228516,153.439072 176.498627,152.906219 174.217712,151.562012  C173.953568,150.610428 174.348907,150.090393 175.231903,149.523819  C175.989548,149.269913 176.442535,149.244171 177.461746,149.660400 z"></path><path fill="#B8D1F6" opacity="1.000000" stroke="none" d="M176.229767,149.700439  C175.490906,150.326080 174.967346,150.641281 174.204773,151.158859  C173.965790,151.361237 173.556778,151.202698 173.342529,151.163361  C173.082062,150.642349 173.035812,150.160660 172.964569,149.316895  C172.939575,148.954819 173.002945,148.505432 173.030090,148.280670  C173.769989,148.022751 174.482742,147.989594 175.549347,147.927063  C175.903198,147.897690 175.962234,147.959869 175.993286,147.989441  C176.404938,148.402252 176.545197,148.859238 176.229767,149.700439 z"></path><path fill="#F2F6FD" opacity="1.000000" stroke="none" d="M177.771271,148.235901  C178.485916,147.351501 178.977188,146.791168 179.703217,146.068207  C179.826004,147.314529 180.607590,148.992859 178.382584,149.947449  C178.023392,150.021912 178.007584,150.007309 178.003174,150.003052  C177.620529,149.590607 177.470245,149.110992 177.771271,148.235901 z"></path><path fill="#E6EEFC" opacity="1.000000" stroke="none" d="M332.074280,161.290054  C332.951752,161.065521 333.724701,161.334091 333.957458,162.688599  C333.075928,162.930801 332.286316,162.680710 332.074280,161.290054 z"></path><path fill="#E6EEFC" opacity="1.000000" stroke="none" d="M303.001312,125.331093  C303.529175,125.199402 304.097809,125.355888 304.833801,125.764465  C304.100952,127.102898 303.474762,126.838249 303.001312,125.331093 z"></path><path fill="#E6EEFC" opacity="1.000000" stroke="none" d="M334.810699,234.690308  C334.991943,235.085770 334.993591,235.265671 334.992126,235.715256  C334.549255,235.990814 334.109528,235.996719 333.340027,236.004745  C333.171661,235.095291 333.120605,233.959015 334.810699,234.690308 z"></path><path fill="#E1ECFB" opacity="1.000000" stroke="none" d="M328.672119,252.028992  C328.931519,252.895477 328.703156,253.690659 327.335327,253.962631  C327.066010,253.088791 327.306946,252.303223 328.672119,252.028992 z"></path><path fill="#E1ECFB" opacity="1.000000" stroke="none" d="M324.657349,260.980072  C324.787689,261.507751 324.632843,262.086487 324.222351,262.836609  C322.906738,262.103912 323.174103,261.472076 324.657349,260.980072 z"></path><path fill="#B8D1F6" opacity="1.000000" stroke="none" d="M203.627106,119.258286  C203.294388,119.124733 203.222977,118.922142 203.118484,118.400269  C203.558792,118.088020 204.032150,118.095047 204.854279,118.189041  C204.764816,118.580429 204.326599,118.884842 203.627106,119.258286 z"></path><path fill="#9CBFF3" opacity="1.000000" stroke="none" d="M302.543732,310.871155  C302.895050,311.318970 302.936371,311.793121 302.975372,312.623016  C302.406281,313.131805 301.839539,313.284851 301.133972,313.259186  C300.602234,312.678741 300.455078,312.201233 300.771423,311.319672  C301.404144,310.960052 301.818939,310.928772 302.543732,310.871155 z"></path><path fill="#BCD3F7" opacity="1.000000" stroke="none" d="M300.639801,311.048553  C300.990936,311.454926 300.992523,311.918488 300.994629,312.731262  C300.521881,313.345306 300.048615,313.610138 299.328308,313.989380  C299.032867,312.922424 298.755371,311.648682 300.639801,311.048553 z"></path><path fill="#9CBFF3" opacity="1.000000" stroke="none" d="M314.511566,288.928345  C314.884979,289.315857 314.926910,289.788147 314.964325,290.614716  C314.457214,291.241791 313.954590,291.514587 313.172150,291.857849  C312.944031,290.789795 312.805115,289.567108 314.511566,288.928345 z"></path><path fill="#9CBFF3" opacity="1.000000" stroke="none" d="M316.577667,285.945679  C316.964294,286.859283 316.733307,287.652863 315.313354,287.955505  C315.003906,287.064270 315.278076,286.306000 316.577667,285.945679 z"></path><path fill="#DAE7FA" opacity="1.000000" stroke="none" d="M177.856079,147.735992  C177.996506,148.375977 177.998352,148.840103 177.999481,149.651505  C177.557709,150.003067 177.116638,150.007370 176.345016,150.011276  C176.013321,149.568024 176.012161,149.125153 176.017670,148.350647  C176.588730,147.866043 177.153122,147.713089 177.856079,147.735992 z"></path><path fill="#A1C2F3" opacity="1.000000" stroke="none" d="M291.912811,173.194122  C297.088806,183.575684 300.134308,194.058319 296.925598,205.200226  C293.868408,215.815964 288.652649,224.867188 279.217590,231.818832  C271.070587,237.821442 262.111816,240.193100 252.822311,240.685608  C241.486115,241.286636 230.755920,237.801849 222.275970,229.685410  C209.466171,217.424713 204.484375,202.524658 207.995193,184.953201  C210.804077,170.894836 220.165909,161.770050 231.231613,153.950806  C234.425079,151.694214 238.283524,151.066986 242.065582,150.503036  C256.588196,148.337708 270.418060,150.037964 281.930481,159.852890  C285.972076,163.298584 289.677979,167.625992 291.912811,173.194122 z"></path><path fill="#659BEC" opacity="1.000000" stroke="none" d="M287.813843,220.639420  C280.853790,227.876511 273.691986,234.281616 263.920624,236.468430  C254.576736,238.559525 244.686127,239.388046 236.018036,235.543564  C222.769684,229.667603 213.442841,219.675919 210.937683,204.449829  C209.615005,196.410782 210.679779,188.634399 212.091263,180.833160  C212.901199,176.356598 214.727966,172.294907 218.284988,169.159882  C222.515076,165.431641 225.734360,160.544571 230.716934,157.699127  C244.622437,149.758102 258.196014,150.669281 272.872650,157.057983  C288.307129,163.776581 298.811188,190.408905 293.932404,205.085144  C292.215057,210.251251 290.914978,215.623672 287.813843,220.639420 z"></path><path fill="#337BE6" opacity="1.000000" stroke="none" d="M288.706940,180.530487  C291.685730,191.429642 291.031189,201.720734 288.348633,212.294189  C286.452454,219.768158 281.127075,223.437958 275.800507,227.557190  C275.307953,227.938110 274.378387,227.790115 273.938385,228.197403  C263.998383,237.397522 251.832153,233.810013 240.385071,233.909470  C235.212433,233.954422 231.658920,229.688629 228.111313,226.793808  C221.248917,221.194122 215.459396,214.848083 214.652786,204.723648  C214.051376,197.174805 215.285233,189.866013 215.050064,182.440063  C214.925522,178.506866 216.469299,175.065338 219.303070,172.130402  C224.842896,166.392899 230.535965,160.896744 237.548996,156.920929  C238.776718,156.224930 240.016129,155.883698 241.305527,155.760254  C251.346024,154.798813 261.039703,153.562363 270.636780,159.619156  C276.412415,163.264206 281.280304,167.045593 285.239349,172.497528  C286.993652,174.913345 287.858490,177.421494 288.706940,180.530487 z"></path></svg>